<?xml version="1.0" encoding="utf-8"?>
<!-- Generator: Adobe Illustrator 21.0.0, SVG Export Plug-In . SVG Version: 6.00 Build 0)  -->
<svg version="1.1" id="Слой_1" xmlns="http://www.w3.org/2000/svg" xmlns:xlink="http://www.w3.org/1999/xlink" x="0px" y="0px"
	 viewBox="0 0 87.9 47.6" style="enable-background:new 0 0 87.9 47.6;" xml:space="preserve">
<style type="text/css">
	.st0{fill:#FFFFFF;}
</style>
<g>
	<path class="st0" d="M87.3,22.2C86.5,21.3,68.3,0.8,45.2,0c-0.4,0-0.8,0-1.3,0c-0.4,0-0.9,0-1.3,0C19.5,0.8,1.4,21.3,0.6,22.2
		c-0.8,0.9-0.8,2.3,0,3.3c0.8,0.9,18.9,21.3,41.9,22.1c0.4,0,0.9,0,1.3,0c0,0,0,0,0.1,0c0,0,0,0,0,0c23.8,0,42.5-21.3,43.3-22.2
		C88.1,24.5,88.1,23.1,87.3,22.2z M62.7,23.8c0,10.4-8.4,18.8-18.8,18.8c0,0-0.1,0-0.1,0c-10.3,0-18.7-8.5-18.7-18.8
		C25.1,13.4,33.5,5,43.9,5C54.3,5,62.7,13.4,62.7,23.8z M24.5,10.1c-2.7,3.9-4.4,8.6-4.4,13.7c0,5.1,1.6,9.8,4.3,13.6
		C15.6,32.9,8.8,26.7,5.9,23.8C8.8,20.9,15.6,14.6,24.5,10.1z M63.3,37.6c2.8-3.9,4.4-8.6,4.4-13.8c0-5.1-1.6-9.8-4.4-13.7
		C72.2,14.6,79,20.9,82,23.8C79,26.8,72.2,33.1,63.3,37.6z"/>
	<path class="st0" d="M43.9,39.4c8.4,0,15.2-6.8,15.2-15.2C59.1,15.8,52.3,9,43.9,9s-15.2,6.8-15.2,15.2
		C28.7,32.6,35.5,39.4,43.9,39.4z M43.9,14c5.6,0,10.2,4.6,10.2,10.2s-4.6,10.2-10.2,10.2c-5.6,0-10.2-4.6-10.2-10.2
		S38.3,14,43.9,14z"/>
</g>
</svg>
