<?xml version="1.0" encoding="utf-8"?>
<!-- Generator: Adobe Illustrator 21.0.0, SVG Export Plug-In . SVG Version: 6.00 Build 0)  -->
<svg version="1.1" id="Слой_1" xmlns="http://www.w3.org/2000/svg" xmlns:xlink="http://www.w3.org/1999/xlink" x="0px" y="0px"
	 viewBox="0 0 82.3 103.5" style="enable-background:new 0 0 82.3 103.5;" xml:space="preserve">
<style type="text/css">
	.st0{fill:#FFFFFF;}
</style>
<g>
	<g>
		<path class="st0" d="M41.1,103.5C41.1,103.5,41.1,103.5,41.1,103.5c-1,0-1.9-0.6-2.3-1.5c-1.1-2.6-5.6-5.6-8.1-6.4
			C-5.9,83.7,0.1,25.6,0.4,23.1c0.1-0.7,0.5-1.4,1.1-1.8c0.6-0.4,1.3-0.5,2-0.4c0.1,0,7.3,1.6,19.6-3.9C33.5,12.6,38.8,1.5,38.8,1.4
			C39.3,0.6,40.1,0,41.1,0s1.8,0.6,2.3,1.4c0.1,0.1,5.4,11,15.8,15.7C71.4,22.6,78.6,21,78.7,21c0.7-0.2,1.4,0,2,0.4s1,1.1,1.1,1.8
			c0.3,2.5,6.3,60.5-30.3,72.5c-2.6,0.9-6.9,3.8-8.1,6.4C43,102.9,42.1,103.5,41.1,103.5z M5.2,26.2C4.5,37.2,3.5,81.5,32.3,90.8
			c2.5,0.8,6.2,3,8.8,5.8c2.6-2.8,6.3-4.9,8.8-5.8C78.7,81.4,77.7,37.2,77,26.2c-3.6,0.2-10.5-0.3-19.9-4.5c-8-3.6-13.2-10-16-14.2
			c-2.7,4.2-8,10.7-16,14.2C15.7,25.9,8.8,26.4,5.2,26.2z"/>
	</g>
</g>
</svg>
