<?xml version="1.0" encoding="utf-8"?>
<!-- Generator: Adobe Illustrator 21.0.0, SVG Export Plug-In . SVG Version: 6.00 Build 0)  -->
<svg version="1.1" id="Слой_1" xmlns="http://www.w3.org/2000/svg" xmlns:xlink="http://www.w3.org/1999/xlink" x="0px" y="0px"
	 viewBox="0 0 93.3 93.3" style="enable-background:new 0 0 93.3 93.3;" xml:space="preserve">
<style type="text/css">
	.st0{fill:#FFFFFF;}
</style>
<path class="st0" d="M46.6,0C20.9,0,0,20.9,0,46.6c0,12,4.6,22.9,12,31.2c0.1,0.2,0.2,0.4,0.4,0.5c0.2,0.2,0.3,0.3,0.5,0.4
	c8.5,8.9,20.5,14.5,33.7,14.5c25.7,0,46.6-20.9,46.6-46.6C93.2,20.9,72.3,0,46.6,0z M46.6,5c11.1,0,21.1,4.4,28.6,11.4L14.4,73
	C8.5,65.8,5,56.6,5,46.6C5,23.7,23.7,5,46.6,5z M46.6,88.2c-11.1,0-21.3-4.4-28.8-11.6l60.8-56.5c6,7.2,9.6,16.4,9.6,26.5
	C88.2,69.5,69.5,88.2,46.6,88.2z"/>
</svg>
