<?xml version="1.0" encoding="utf-8"?>
<!-- Generator: Adobe Illustrator 21.0.0, SVG Export Plug-In . SVG Version: 6.00 Build 0)  -->
<svg version="1.1" id="Слой_1" xmlns="http://www.w3.org/2000/svg" xmlns:xlink="http://www.w3.org/1999/xlink" x="0px" y="0px"
	 viewBox="0 0 93.3 93.3" style="enable-background:new 0 0 93.3 93.3;" xml:space="preserve">
<style type="text/css">
	.st0{fill:#FFFFFF;}
</style>
<g>
	<path class="st0" d="M46.6,0C20.9,0,0,20.9,0,46.6c0,25.7,20.9,46.6,46.6,46.6c25.7,0,46.6-20.9,46.6-46.6C93.2,20.9,72.3,0,46.6,0
		z M46.6,88.2C23.7,88.2,5,69.5,5,46.6C5,23.7,23.7,5,46.6,5c22.9,0,41.6,18.7,41.6,41.6C88.2,69.5,69.5,88.2,46.6,88.2z"/>
	<path class="st0" d="M48.4,44.1c-0.2-0.1-0.5-0.1-0.8-0.1h-2c-4.5,0-8.1-3.6-8.1-8.1s3.6-8.1,8.1-8.1H58c1.4,0,2.5-1.1,2.5-2.5
		s-1.1-2.5-2.5-2.5h-7.5v-7.3c0-1.4-1.1-2.5-2.5-2.5s-2.5,1.1-2.5,2.5v7.3c-7.2,0.1-13,5.9-13,13.1c0,6.7,5.1,12.3,11.7,13
		c0.3,0.1,0.6,0.2,0.9,0.2h2.6c4.5,0,8.1,3.6,8.1,8.1c0,4.5-3.6,8.1-8.1,8.1H35.3c-1.4,0-2.5,1.1-2.5,2.5s1.1,2.5,2.5,2.5h10.2v7.5
		c0,1.4,1.1,2.5,2.5,2.5s2.5-1.1,2.5-2.5V70c5.9-1.3,10.3-6.5,10.3-12.8C60.8,50.2,55.3,44.5,48.4,44.1z"/>
</g>
</svg>
