<?xml version="1.0" encoding="utf-8"?>
<!-- Generator: Adobe Illustrator 21.0.0, SVG Export Plug-In . SVG Version: 6.00 Build 0)  -->
<svg version="1.1" id="Слой_1" xmlns="http://www.w3.org/2000/svg" xmlns:xlink="http://www.w3.org/1999/xlink" x="0px" y="0px"
	 viewBox="0 0 72.7 94.8" style="enable-background:new 0 0 72.7 94.8;" xml:space="preserve">
<style type="text/css">
	.st0{fill:#FFFFFF;}
</style>
<g>
	<g>
		<path class="st0" d="M36.3,58.5c-11.4,0-20-15.8-20-29.9c0-13.1,7.9-21.5,20-21.5c12.2,0,20.1,8.4,20.1,21.5
			C56.4,42.7,47.8,58.5,36.3,58.5z M36.3,12.1c-9.4,0-15,6.2-15,16.5c0,11.2,6.9,24.9,15,24.9c7.5,0,15.1-12.6,15.1-24.9
			C51.4,16.4,43.6,12.1,36.3,12.1z"/>
	</g>
	<g>
		<g>
			<path class="st0" d="M2.5,94.8c-1.4,0-2.5-1.1-2.5-2.5v-16C0,70,5.2,64.9,11.7,64.9c5.5,0,12.1-1.3,12.1-7.6v-7
				c0-1.4,1.1-2.5,2.5-2.5s2.5,1.1,2.5,2.5v7c0,7.9-6.4,12.6-17.1,12.6C8,69.9,5,72.8,5,76.3v16C5,93.7,3.9,94.8,2.5,94.8z"/>
		</g>
	</g>
	<g>
		<g>
			<path class="st0" d="M70.2,94.8c-1.4,0-2.5-1.1-2.5-2.5v-16c0-3.5-3-6.4-6.7-6.4c-10.7,0-17.1-4.7-17.1-12.6v-7
				c0-1.4,1.1-2.5,2.5-2.5s2.5,1.1,2.5,2.5v7c0,6.3,6.6,7.6,12.1,7.6c6.5,0,11.7,5.1,11.7,11.4v16C72.7,93.7,71.6,94.8,70.2,94.8z"
				/>
		</g>
	</g>
	<g>
		<path class="st0" d="M58.4,26.9c-1.4,0-2.5-1.1-2.5-2.5C55.9,12.3,48.6,5,36.4,5s-19.5,7.3-19.5,19.4c0,1.4-1.1,2.5-2.5,2.5
			s-2.5-1.1-2.5-2.5C11.9,9.6,21.5,0,36.4,0s24.5,9.6,24.5,24.4C60.9,25.8,59.8,26.9,58.4,26.9z"/>
	</g>
	<g>
		<path class="st0" d="M14.4,46c-6,0-10.9-5.7-10.9-12.7c0-7.1,4.9-12.8,10.9-12.8c1.4,0,2.5,1.1,2.5,2.5v20.5
			C16.9,44.9,15.8,46,14.4,46z M11.9,26.3c-2,1.3-3.4,4-3.4,7c0,3.1,1.4,5.7,3.4,7V26.3z"/>
	</g>
	<g>
		<path class="st0" d="M58.3,46c-1.4,0-2.5-1.1-2.5-2.5V23c0-1.4,1.1-2.5,2.5-2.5c6,0,10.9,5.7,10.9,12.7C69.2,40.3,64.3,46,58.3,46
			z M60.8,26.2v14c2-1.3,3.4-4,3.4-7C64.2,30.1,62.8,27.5,60.8,26.2z"/>
	</g>
	<g>
		<path class="st0" d="M58.3,46H39.8c-1.4,0-2.5-1.1-2.5-2.5s1.1-2.5,2.5-2.5h18.5c1.4,0,2.5,1.1,2.5,2.5S59.7,46,58.3,46z"/>
	</g>
</g>
</svg>
