<?xml version="1.0" encoding="utf-8"?>
<!-- Generator: Adobe Illustrator 21.0.0, SVG Export Plug-In . SVG Version: 6.00 Build 0)  -->
<svg version="1.1" id="Слой_1" xmlns="http://www.w3.org/2000/svg" xmlns:xlink="http://www.w3.org/1999/xlink" x="0px" y="0px"
	 viewBox="0 0 231.7 144.2" style="enable-background:new 0 0 231.7 144.2;" xml:space="preserve">
<style type="text/css">
	.st0{fill:#FFBD5E;}
	.st1{fill:#BA4E4D;}
</style>
<g>
	<g>
		<g>
			<path class="st0" d="M228.3,13.2h-11.7c-1.4,0-2.5-1.1-2.5-2.5s1.1-2.5,2.5-2.5h11.7c1.4,0,2.5,1.1,2.5,2.5
				S229.7,13.2,228.3,13.2z"/>
		</g>
		<g>
			<path class="st0" d="M222.4,19.1c-1.4,0-2.5-1.1-2.5-2.5V4.8c0-1.4,1.1-2.5,2.5-2.5s2.5,1.1,2.5,2.5v11.8
				C224.9,18,223.8,19.1,222.4,19.1z"/>
		</g>
	</g>
	<g>
		<g>
			<path class="st0" d="M15.2,117.2H3.4c-1.4,0-2.5-1.1-2.5-2.5s1.1-2.5,2.5-2.5h11.8c1.4,0,2.5,1.1,2.5,2.5S16.6,117.2,15.2,117.2z
				"/>
		</g>
		<g>
			<path class="st0" d="M9.3,123.1c-1.4,0-2.5-1.1-2.5-2.5v-11.7c0-1.4,1.1-2.5,2.5-2.5s2.5,1.1,2.5,2.5v11.7
				C11.8,122,10.7,123.1,9.3,123.1z"/>
		</g>
	</g>
	<g>
		<path class="st0" d="M9.3,20C4.2,20,0,15.8,0,10.7s4.2-9.3,9.3-9.3c5.1,0,9.3,4.2,9.3,9.3S14.4,20,9.3,20z M9.3,6.4
			C6.9,6.4,5,8.3,5,10.7S6.9,15,9.3,15s4.3-1.9,4.3-4.3S11.7,6.4,9.3,6.4z"/>
	</g>
	<g>
		<path class="st0" d="M222.4,79.6c-5.1,0-9.3-4.2-9.3-9.3c0-5.1,4.2-9.3,9.3-9.3c5.1,0,9.3,4.2,9.3,9.3
			C231.7,75.4,227.5,79.6,222.4,79.6z M222.4,66c-2.4,0-4.3,1.9-4.3,4.3s1.9,4.3,4.3,4.3s4.3-1.9,4.3-4.3S224.8,66,222.4,66z"/>
	</g>
	<g>
		<path class="st1" d="M91.3,144.2h-54c-1.4,0-2.5-1.1-2.5-2.5V41.2c0-1.4,1.1-2.5,2.5-2.5h54c1.4,0,2.5,1.1,2.5,2.5v100.5
			C93.8,143.1,92.7,144.2,91.3,144.2z M39.8,139.2h49V43.7h-49V139.2z"/>
	</g>
	<g>
		<path class="st1" d="M154.3,97.7h-54c-1.4,0-2.5-1.1-2.5-2.5v-54c0-1.4,1.1-2.5,2.5-2.5h54c1.4,0,2.5,1.1,2.5,2.5v54
			C156.8,96.6,155.7,97.7,154.3,97.7z M102.8,92.7h49v-49h-49V92.7z"/>
	</g>
	<g>
		<path class="st1" d="M228.3,144.2h-128c-1.4,0-2.5-1.1-2.5-2.5v-36.3c0-1.4,1.1-2.5,2.5-2.5h128c1.4,0,2.5,1.1,2.5,2.5v36.3
			C230.8,143.1,229.7,144.2,228.3,144.2z M102.8,139.2h123v-31.3h-123V139.2z"/>
	</g>
	<g>
		<path class="st0" d="M100.3,21.4c-1.4,0-2.5-1.1-2.5-2.5V2.5c0-1.4,1.1-2.5,2.5-2.5s2.5,1.1,2.5,2.5v16.4
			C102.8,20.3,101.7,21.4,100.3,21.4z"/>
	</g>
</g>
</svg>
