<?xml version="1.0" encoding="utf-8"?>
<!-- Generator: Adobe Illustrator 21.0.0, SVG Export Plug-In . SVG Version: 6.00 Build 0)  -->
<svg version="1.1" id="Слой_1" xmlns="http://www.w3.org/2000/svg" xmlns:xlink="http://www.w3.org/1999/xlink" x="0px" y="0px"
	 viewBox="0 0 198.4 144.2" style="enable-background:new 0 0 198.4 144.2;" xml:space="preserve">
<style type="text/css">
	.st0{fill:#FFBD5E;}
	.st1{fill:#BA4E4D;}
</style>
<g>
	<g>
		<g>
			<path class="st0" d="M195.9,31.5h-11.7c-1.4,0-2.5-1.1-2.5-2.5s1.1-2.5,2.5-2.5h11.7c1.4,0,2.5,1.1,2.5,2.5
				S197.3,31.5,195.9,31.5z"/>
		</g>
		<g>
			<path class="st0" d="M190,37.4c-1.4,0-2.5-1.1-2.5-2.5V23.2c0-1.4,1.1-2.5,2.5-2.5s2.5,1.1,2.5,2.5v11.7
				C192.5,36.3,191.4,37.4,190,37.4z"/>
		</g>
	</g>
	<g>
		<g>
			<path class="st0" d="M14.2,109.2H2.5c-1.4,0-2.5-1.1-2.5-2.5s1.1-2.5,2.5-2.5h11.7c1.4,0,2.5,1.1,2.5,2.5S15.6,109.2,14.2,109.2z
				"/>
		</g>
		<g>
			<path class="st0" d="M8.4,115.1c-1.4,0-2.5-1.1-2.5-2.5v-11.7c0-1.4,1.1-2.5,2.5-2.5s2.5,1.1,2.5,2.5v11.7
				C10.9,114,9.8,115.1,8.4,115.1z"/>
		</g>
	</g>
	<g>
		<path class="st0" d="M101,18.6c-5.1,0-9.3-4.2-9.3-9.3c0-5.1,4.2-9.3,9.3-9.3s9.3,4.2,9.3,9.3C110.3,14.4,106.1,18.6,101,18.6z
			 M101,5c-2.4,0-4.3,1.9-4.3,4.3s1.9,4.3,4.3,4.3s4.3-1.9,4.3-4.3S103.4,5,101,5z"/>
	</g>
	<g>
		<path class="st0" d="M8.4,39.7c-1.4,0-2.5-1.1-2.5-2.5V20.8c0-1.4,1.1-2.5,2.5-2.5s2.5,1.1,2.5,2.5v16.4
			C10.9,38.6,9.8,39.7,8.4,39.7z"/>
	</g>
	<g>
		<path class="st0" d="M190,119.2c-1.4,0-2.5-1.1-2.5-2.5v-16.4c0-1.4,1.1-2.5,2.5-2.5s2.5,1.1,2.5,2.5v16.4
			C192.5,118.1,191.4,119.2,190,119.2z"/>
	</g>
	<g>
		<path class="st1" d="M175.3,144.2H26.6c-1.4,0-2.5-1.1-2.5-2.5V56c0-1.4,1.1-2.5,2.5-2.5h148.7c1.4,0,2.5,1.1,2.5,2.5v85.7
			C177.8,143.1,176.7,144.2,175.3,144.2z M29.1,139.2h143.7V58.5H29.1V139.2z"/>
	</g>
	<g>
		<path class="st0" d="M101,135.5c-17.5,0-31.6-13.7-32-31.2l0-39.6c0-1.4,1.1-2.5,2.5-2.5c8,0,15.2,4.3,19.1,11
			c3.2-1.1,6.8-1.7,10.4-1.7c3.5,0,6.9,0.6,10.4,1.8c3.9-6.8,11.1-11.1,19.1-11.1c1.4,0,2.5,1.1,2.5,2.5v39.5
			C132.6,121.8,118.5,135.5,101,135.5z M74,67.4v36.8c0.4,14.7,12.2,26.3,27,26.3c14.8,0,26.6-11.6,27-26.4l0-36.8
			c-5.8,0.8-10.8,4.6-13.1,10c-0.5,1.3-2,1.8-3.3,1.3c-3.5-1.5-7.1-2.2-10.6-2.2c-3.8,0-7.5,0.8-10.6,2.2c-0.6,0.3-1.3,0.3-1.9,0.1
			c-0.6-0.2-1.1-0.7-1.4-1.3C84.7,72,79.8,68.2,74,67.4z"/>
	</g>
	<g>
		<path class="st1" d="M89.6,122.1c-0.4,0-0.9-0.1-1.3-0.3c-0.8-0.4-1.3-1.3-1.3-2.2V85.2c0-0.9,0.5-1.7,1.3-2.2
			c0.8-0.4,1.7-0.4,2.5,0l29.8,17.2c0.8,0.4,1.3,1.3,1.3,2.2s-0.5,1.7-1.3,2.2l-29.8,17.2C90.5,122,90,122.1,89.6,122.1z M92.1,89.5
			v25.7l22.3-12.9L92.1,89.5z"/>
	</g>
</g>
</svg>
