<?xml version="1.0" encoding="utf-8"?>
<!-- Generator: Adobe Illustrator 21.0.0, SVG Export Plug-In . SVG Version: 6.00 Build 0)  -->
<svg version="1.1" id="Слой_1" xmlns="http://www.w3.org/2000/svg" xmlns:xlink="http://www.w3.org/1999/xlink" x="0px" y="0px"
	 viewBox="0 0 202 165.6" style="enable-background:new 0 0 202 165.6;" xml:space="preserve">
<style type="text/css">
	.st0{fill:#AE4D4C;}
	.st1{fill:#FFBD5E;}
</style>
<g>
	<g>
		<path class="st0" d="M30.6,148.1c-0.5,0-1-0.1-1.4-0.4c-1.1-0.8-1.4-2.3-0.7-3.5L41.6,125c0.4-0.6,1-1,1.7-1.1
			c0.7-0.1,1.4,0.1,2,0.6l6.9,5.9l5.9-11.2c0.6-1.2,2.2-1.7,3.4-1c1.2,0.6,1.7,2.2,1,3.4l-7.4,13.9c-0.4,0.7-1,1.1-1.7,1.3
			c-0.7,0.1-1.5-0.1-2.1-0.6l-7.2-6.1L32.7,147C32.2,147.7,31.4,148.1,30.6,148.1z"/>
	</g>
	<g>
		<path class="st0" d="M145.8,122.3c-0.4,0-0.8-0.1-1.2-0.3l-7.2-3.9c-1.2-0.7-1.7-2.2-1-3.4c0.7-1.2,2.2-1.7,3.4-1l5.2,2.8
			l11.7-18.4c0.4-0.6,1.1-1.1,1.9-1.1c0.8-0.1,1.5,0.2,2.1,0.8l8.7,9.1c1,1,0.9,2.6-0.1,3.5c-1,1-2.6,0.9-3.5-0.1l-6.5-6.8
			l-11.3,17.7C147.4,121.9,146.6,122.3,145.8,122.3z"/>
	</g>
	<g>
		<path class="st0" d="M60.4,112.8c-0.2,0-0.4,0-0.6-0.1c-8.1-2-13.8-9.3-13.8-17.7c0-10.1,8.2-18.3,18.3-18.3
			c5.3,0,10.4,2.4,13.9,6.5c0.9,1.1,0.8,2.6-0.3,3.5c-1.1,0.9-2.6,0.8-3.5-0.3c-2.6-3-6.2-4.7-10.1-4.7C57,81.7,51,87.7,51,95
			c0,6.1,4.1,11.4,10,12.9c1.3,0.3,2.2,1.7,1.8,3C62.5,112,61.5,112.8,60.4,112.8z"/>
	</g>
	<g>
		<g>
			<path class="st1" d="M105.2,10.9H93.4c-1.4,0-2.5-1.1-2.5-2.5s1.1-2.5,2.5-2.5h11.8c1.4,0,2.5,1.1,2.5,2.5S106.6,10.9,105.2,10.9
				z"/>
		</g>
		<g>
			<path class="st1" d="M99.3,16.7c-1.4,0-2.5-1.1-2.5-2.5V2.5c0-1.4,1.1-2.5,2.5-2.5s2.5,1.1,2.5,2.5v11.7
				C101.8,15.6,100.7,16.7,99.3,16.7z"/>
		</g>
	</g>
	<g>
		<path class="st1" d="M192.7,39.9c-5.1,0-9.3-4.2-9.3-9.3c0-5.1,4.2-9.3,9.3-9.3s9.3,4.2,9.3,9.3C202,35.7,197.8,39.9,192.7,39.9z
			 M192.7,26.3c-2.4,0-4.3,1.9-4.3,4.3s1.9,4.3,4.3,4.3s4.3-1.9,4.3-4.3S195.1,26.3,192.7,26.3z"/>
	</g>
	<g>
		<path class="st1" d="M9.3,122.2c-5.1,0-9.3-4.2-9.3-9.3s4.2-9.3,9.3-9.3c5.1,0,9.3,4.2,9.3,9.3S14.4,122.2,9.3,122.2z M9.3,108.6
			c-2.4,0-4.3,1.9-4.3,4.3s1.9,4.3,4.3,4.3s4.3-1.9,4.3-4.3S11.7,108.6,9.3,108.6z"/>
	</g>
	<g>
		<path class="st1" d="M9.3,41.3c-1.4,0-2.5-1.1-2.5-2.5V22.4c0-1.4,1.1-2.5,2.5-2.5s2.5,1.1,2.5,2.5v16.4
			C11.8,40.2,10.7,41.3,9.3,41.3z"/>
	</g>
	<g>
		<path class="st1" d="M192.7,126.1c-1.4,0-2.5-1.1-2.5-2.5v-16.4c0-1.4,1.1-2.5,2.5-2.5s2.5,1.1,2.5,2.5v16.4
			C195.2,125,194.1,126.1,192.7,126.1z"/>
	</g>
	<g>
		<path class="st1" d="M168.1,165.6H30.6c-1.4,0-2.5-1.1-2.5-2.5V62.8c0-1.4,1.1-2.5,2.5-2.5h137.5c1.4,0,2.5,1.1,2.5,2.5v100.3
			C170.6,164.5,169.5,165.6,168.1,165.6z M33.1,160.6h132.5V65.3H33.1V160.6z"/>
	</g>
	<g>
		<path class="st1" d="M138.3,165.6H60.4c-1.4,0-2.5-1.1-2.5-2.5V87.8c0-1.4,1.1-2.5,2.5-2.5h77.9c1.4,0,2.5,1.1,2.5,2.5v75.3
			C140.8,164.5,139.7,165.6,138.3,165.6z M62.9,160.6h72.9V90.3H62.9V160.6z"/>
	</g>
	<g>
		<path class="st1" d="M168.1,74.2H30.6c-1.4,0-2.5-1.1-2.5-2.5s1.1-2.5,2.5-2.5h137.5c1.4,0,2.5,1.1,2.5,2.5S169.5,74.2,168.1,74.2
			z"/>
	</g>
</g>
</svg>
