<?xml version="1.0" encoding="utf-8"?>
<!-- Generator: Adobe Illustrator 21.0.0, SVG Export Plug-In . SVG Version: 6.00 Build 0)  -->
<svg version="1.1" id="Слой_1" xmlns="http://www.w3.org/2000/svg" xmlns:xlink="http://www.w3.org/1999/xlink" x="0px" y="0px"
	 viewBox="0 0 71.4 97.5" style="enable-background:new 0 0 71.4 97.5;" xml:space="preserve">
<style type="text/css">
	.st0{fill:#BA4E4D;}
</style>
<path class="st0" d="M68.9,92.5H41.4l29.4-32c0.7-0.7,0.8-1.8,0.4-2.7c-0.4-0.9-1.3-1.5-2.3-1.5H52.2V2.5c0-1.4-1.1-2.5-2.5-2.5h-28
	c-1.4,0-2.5,1.1-2.5,2.5v53.8H2.5c-1,0-1.9,0.6-2.3,1.5c-0.4,0.9-0.2,2,0.4,2.7l29.4,32H2.5C1.1,92.5,0,93.6,0,95s1.1,2.5,2.5,2.5
	h66.4c1.4,0,2.5-1.1,2.5-2.5S70.3,92.5,68.9,92.5z M21.7,61.3c1.4,0,2.5-1.1,2.5-2.5V5h23v53.8c0,1.4,1.1,2.5,2.5,2.5h13.5l-27.5,30
	l-27.5-30H21.7z"/>
</svg>
