<?xml version="1.0" encoding="utf-8"?>
<!-- Generator: Adobe Illustrator 21.0.0, SVG Export Plug-In . SVG Version: 6.00 Build 0)  -->
<svg version="1.1" id="Слой_1" xmlns="http://www.w3.org/2000/svg" xmlns:xlink="http://www.w3.org/1999/xlink" x="0px" y="0px"
	 viewBox="0 0 81.5 98.1" style="enable-background:new 0 0 81.5 98.1;" xml:space="preserve">
<style type="text/css">
	.st0{fill:#BA4E4D;}
</style>
<g>
	<path class="st0" d="M57.2,60.6c-2.8,0-4.4,1.1-5.5,1.8c-0.9,0.6-1.4,1-2.7,1s-1.8-0.3-2.7-1c-1.1-0.8-2.7-1.8-5.5-1.8
		c-2.8,0-4.4,1.1-5.5,1.8c-0.9,0.6-1.4,1-2.7,1s-1.8-0.3-2.7-1c-1.1-0.8-2.7-1.8-5.5-1.8c-1.4,0-2.5,1.1-2.5,2.5s1.1,2.5,2.5,2.5
		c1.3,0,1.8,0.3,2.7,1c1.1,0.8,2.7,1.8,5.5,1.8s4.4-1.1,5.5-1.8c0.9-0.6,1.4-1,2.7-1c1.3,0,1.8,0.3,2.7,1c1.1,0.8,2.7,1.8,5.5,1.8
		s4.4-1.1,5.5-1.8c0.9-0.6,1.4-1,2.7-1c1.4,0,2.5-1.1,2.5-2.5S58.6,60.6,57.2,60.6z"/>
	<path class="st0" d="M80.3,84.7l-16-28.5l-9.7-17.3V5h5.2c1.4,0,2.5-1.1,2.5-2.5S61.2,0,59.8,0h-7.7H29.4h-7.7
		c-1.4,0-2.5,1.1-2.5,2.5S20.3,5,21.7,5h5.2v33.7l-9.7,17.3l-16,28.5c-1.6,3-1.6,6.6,0.1,9.5C2.8,96.6,5.2,98,7.8,98l65.7,0
		c0.1,0,0.1,0,0.2,0c2.6,0,5-1.4,6.4-3.8C81.9,91.3,81.9,87.6,80.3,84.7z M75.8,91.6c-0.3,0.5-1,1.4-2.2,1.4H7.8
		c-1.1,0-1.8-0.9-2.2-1.4c-0.8-1.4-0.8-3.2-0.1-4.6l16-28.5l10-17.9c0.2-0.4,0.3-0.8,0.3-1.2V5h17.7v34.5c0,0.4,0.1,0.8,0.3,1.2
		l10,17.9l16,28.5C76.8,88.7,76.5,90.5,75.8,91.6z"/>
</g>
</svg>
