<?xml version="1.0" encoding="utf-8"?>
<!-- Generator: Adobe Illustrator 21.0.0, SVG Export Plug-In . SVG Version: 6.00 Build 0)  -->
<svg version="1.1" id="Слой_1" xmlns="http://www.w3.org/2000/svg" xmlns:xlink="http://www.w3.org/1999/xlink" x="0px" y="0px"
	 viewBox="0 0 94 94" style="enable-background:new 0 0 94 94;" xml:space="preserve">
<style type="text/css">
	.st0{fill:#BA4E4D;}
</style>
<g>
	<path class="st0" d="M47,0C21.1,0,0,21.1,0,47s21.1,47,47,47s47-21.1,47-47S72.9,0,47,0z M47,89C23.8,89,5,70.2,5,47
		C5,23.8,23.8,5,47,5c23.2,0,42,18.8,42,42C89,70.2,70.2,89,47,89z"/>
	<path class="st0" d="M47,12.9c-18.8,0-34.1,15.3-34.1,34.1S28.2,81.1,47,81.1S81.1,65.8,81.1,47S65.8,12.9,47,12.9z M47,76.1
		C31,76.1,17.9,63,17.9,47C17.9,31,31,17.9,47,17.9S76.1,31,76.1,47C76.1,63,63,76.1,47,76.1z"/>
	<path class="st0" d="M47,25.8c-11.7,0-21.2,9.5-21.2,21.2S35.3,68.2,47,68.2c11.7,0,21.2-9.5,21.2-21.2S58.7,25.8,47,25.8z
		 M47,63.2c-8.9,0-16.2-7.3-16.2-16.2S38.1,30.8,47,30.8S63.2,38.1,63.2,47S55.9,63.2,47,63.2z"/>
</g>
</svg>
