<?xml version="1.0" encoding="utf-8"?>
<!-- Generator: Adobe Illustrator 21.0.0, SVG Export Plug-In . SVG Version: 6.00 Build 0)  -->
<svg version="1.1" id="Слой_1" xmlns="http://www.w3.org/2000/svg" xmlns:xlink="http://www.w3.org/1999/xlink" x="0px" y="0px"
	 viewBox="0 0 72.7 94.8" style="enable-background:new 0 0 72.7 94.8;" xml:space="preserve">
<style type="text/css">
	.st0{fill:#BA4E4D;}
</style>
<path class="st0" d="M61,64.9c-5.5,0-12.1-1.3-12.1-7.6v-6c1.3-1.6,2.4-3.4,3.4-5.3h6c6,0,10.9-5.7,10.9-12.8
	c0-6.1-3.7-11.1-8.5-12.4C59.2,8.1,50,0,36.4,0C22.8,0,13.6,8,12.1,20.8C7.2,22,3.5,27.2,3.5,33.3c0,7,4.9,12.7,10.9,12.7
	c1.4,0,2.5-1.1,2.5-2.5v-8.3c1.1,6,3.5,11.8,6.9,16.2v5.9c0,6.3-6.6,7.6-12.1,7.6C5.2,64.9,0,70,0,76.3v16c0,1.4,1.1,2.5,2.5,2.5
	S5,93.7,5,92.3v-16c0-3.5,3-6.4,6.7-6.4c10.7,0,17.1-4.7,17.1-12.6v-1.2c2.3,1.5,4.8,2.4,7.5,2.4c2.7,0,5.3-0.9,7.6-2.4v1.2
	c0,7.9,6.4,12.6,17.1,12.6c3.7,0,6.7,2.9,6.7,6.4v16c0,1.4,1.1,2.5,2.5,2.5s2.5-1.1,2.5-2.5v-16C72.7,70,67.5,64.9,61,64.9z
	 M55.8,41h-1.5c0.6-1.9,1.1-3.8,1.5-5.8V41z M64.2,33.2c0,3.1-1.4,5.8-3.4,7v-14C62.8,27.5,64.2,30.1,64.2,33.2z M36.4,5
	C48,5,55.2,11.6,55.8,22.7c0,0.1,0,0.1,0,0.2c-2-9.7-9.2-15.7-19.5-15.7c-10.1,0-17.2,5.8-19.3,15.3C17.7,11.5,24.9,5,36.4,5z
	 M11.9,40.3c-2-1.2-3.4-3.9-3.4-7c0-3.1,1.4-5.8,3.4-7V40.3z M36.3,53.5c-2.8,0-5.5-1.7-7.8-4.3c-0.2-0.4-0.4-0.7-0.7-0.9
	c-3.9-5-6.5-12.8-6.5-19.7c0-10.3,5.6-16.5,15-16.5c7.3,0,15.1,4.3,15.1,16.5c0,4.3-0.9,8.6-2.4,12.4h-9.2c-1.4,0-2.5,1.1-2.5,2.5
	s1.1,2.5,2.5,2.5h6.6c-0.6,0.9-1.2,1.7-1.8,2.5c-0.1,0.1-0.3,0.3-0.4,0.4C41.9,51.8,39.1,53.5,36.3,53.5z"/>
</svg>
