<?xml version="1.0" encoding="utf-8"?>
<!-- Generator: Adobe Illustrator 21.0.0, SVG Export Plug-In . SVG Version: 6.00 Build 0)  -->
<svg version="1.1" id="Слой_1" xmlns="http://www.w3.org/2000/svg" xmlns:xlink="http://www.w3.org/1999/xlink" x="0px" y="0px"
	 viewBox="0 0 94 94" style="enable-background:new 0 0 94 94;" xml:space="preserve">
<style type="text/css">
	.st0{fill:#BA4E4D;}
</style>
<g>
	<path class="st0" d="M80.2,36.4c-0.3-0.9-1.1-1.6-2-1.7l-20-2.9l-8.9-18.1c-0.4-0.9-1.3-1.4-2.2-1.4s-1.8,0.5-2.2,1.4l-8.9,18.1
		l-20,2.9c-0.9,0.1-1.7,0.8-2,1.7s0,1.9,0.6,2.6l14.5,14.1L25.5,73c-0.2,0.9,0.2,1.9,1,2.4c0.4,0.3,1,0.5,1.5,0.5
		c0.4,0,0.8-0.1,1.2-0.3L47,66.2l17.9,9.4c0.8,0.4,1.9,0.4,2.6-0.2c0.8-0.6,1.2-1.5,1-2.4l-3.5-19.9L79.5,39
		C80.2,38.3,80.5,37.3,80.2,36.4z M60.7,50.4c-0.6,0.6-0.9,1.4-0.7,2.2l2.8,16.2l-14.6-7.6c-0.4-0.2-0.8-0.3-1.2-0.3
		c-0.4,0-0.8,0.1-1.2,0.3l-14.5,7.6l2.8-16.2c0.1-0.8-0.1-1.6-0.7-2.2L21.6,38.9l16.3-2.4c0.8-0.1,1.5-0.6,1.9-1.4L47,20.5l7.3,14.7
		c0.4,0.7,1.1,1.3,1.9,1.4l16.3,2.4L60.7,50.4z"/>
	<path class="st0" d="M47,0C21.1,0,0,21.1,0,47s21.1,47,47,47s47-21.1,47-47S72.9,0,47,0z M47,89C23.8,89,5,70.2,5,47
		C5,23.8,23.8,5,47,5c23.2,0,42,18.8,42,42C89,70.2,70.2,89,47,89z"/>
</g>
</svg>
