<?xml version="1.0" encoding="utf-8"?>
<!-- Generator: Adobe Illustrator 21.0.0, SVG Export Plug-In . SVG Version: 6.00 Build 0)  -->
<svg version="1.1" id="Слой_1" xmlns="http://www.w3.org/2000/svg" xmlns:xlink="http://www.w3.org/1999/xlink" x="0px" y="0px"
	 viewBox="0 0 315.2 109.7" style="enable-background:new 0 0 315.2 109.7;" xml:space="preserve" preserveAspectRatio="xMinYMid">
<style type="text/css">
	.st0{fill:#BA4E4D;}
	.st1{fill:#FFBD5E;}
	.st2{fill:#FFFFFF;}
</style>
<g>
	<g>
		<polygon class="st0" points="0,25 0,75 43.3,100 86.6,75 86.6,25 43.3,0 		"/>
	</g>
	<g>
		<polygon class="st1" points="86.6,25 86.6,75 114.9,84.8 143.1,75 143.1,25 114.9,12.4 		"/>
	</g>
	<g>
		<path class="st2" d="M32,58.6H18.8l-3.3,9.5H7.1l15.5-43.4h6.2l15.5,43.4h-8.9L32,58.6z M21,51.9h9.2L27,42.3l-1.3-6.8h-0.3
			l-1.3,6.8L21,51.9z"/>
		<path class="st2" d="M74,57.3c0,1.7,0,3.4,0.1,5.2c0,1.7,0.2,3.6,0.6,5.7h-5.7l-1.1-4h-0.2c-0.8,1.4-2,2.6-3.5,3.5
			S60.7,69,58.6,69c-3.9,0-6.9-1.3-9-3.8c-2.1-2.5-3.2-6.5-3.2-11.9c0-5.3,1.2-9.3,3.6-12.3c2.4-2.9,5.9-4.4,10.5-4.4
			c1.3,0,2.3,0.1,3.1,0.2c0.8,0.1,1.6,0.4,2.5,0.7V25.1h8V57.3z M60.4,62.3c1.6,0,2.8-0.4,3.7-1.1c0.9-0.8,1.5-1.9,1.9-3.3V44.8
			c-0.6-0.5-1.2-0.8-1.9-1c-0.7-0.2-1.6-0.3-2.7-0.3c-2.3,0-4,0.8-5.1,2.3c-1.1,1.5-1.7,4.1-1.7,7.8c0,2.6,0.5,4.7,1.4,6.3
			C56.9,61.5,58.4,62.3,60.4,62.3z"/>
	</g>
	<g>
		<path class="st2" d="M121.1,57.8c0-1.3-0.5-2.4-1.4-3.2c-1-0.8-2.2-1.6-3.6-2.2c-1.5-0.7-3-1.4-4.7-2.1c-1.7-0.7-3.3-1.6-4.7-2.6
			c-1.5-1-2.7-2.3-3.6-3.9c-1-1.6-1.4-3.6-1.4-6c0-2.1,0.3-3.9,1-5.4c0.7-1.5,1.7-2.8,3-3.8c1.3-1,2.8-1.8,4.6-2.3
			c1.8-0.5,3.7-0.7,5.9-0.7c2.5,0,4.9,0.2,7.1,0.6c2.2,0.4,4,1.1,5.5,1.9l-2.6,7.1c-0.9-0.6-2.3-1.1-4.1-1.6
			c-1.8-0.5-3.8-0.7-5.8-0.7c-2,0-3.5,0.4-4.5,1.2c-1,0.8-1.6,1.8-1.6,3.1c0,1.2,0.5,2.3,1.4,3.1c1,0.8,2.2,1.6,3.6,2.3
			c1.5,0.7,3,1.4,4.7,2.2c1.7,0.7,3.3,1.6,4.7,2.7c1.5,1,2.7,2.3,3.6,3.9c1,1.5,1.4,3.5,1.4,5.8c0,2.3-0.4,4.3-1.1,5.9
			c-0.8,1.7-1.8,3-3.2,4.2c-1.4,1.1-3,1.9-5,2.5c-2,0.5-4.1,0.8-6.4,0.8c-3.1,0-5.8-0.3-8.1-0.9s-4.1-1.1-5.2-1.7l2.7-7.2
			c0.5,0.2,1,0.5,1.8,0.8c0.7,0.3,1.5,0.6,2.4,0.8c0.9,0.2,1.9,0.5,2.9,0.6c1,0.2,2,0.2,3.1,0.2c2.5,0,4.4-0.4,5.8-1.3
			C120.4,60.8,121.1,59.5,121.1,57.8z"/>
		<path class="st0" d="M174.1,67.3c-1.2,0.9-2.7,1.6-4.4,2.1c-1.7,0.5-3.4,0.7-5.3,0.7c-2.4,0-4.4-0.4-6-1.1c-1.6-0.8-3-1.8-4-3.3
			c-1-1.4-1.8-3.1-2.3-5.1c-0.5-2-0.7-4.2-0.7-6.6c0-5.2,1.1-9.2,3.4-12c2.3-2.8,5.6-4.2,9.9-4.2c2,0,3.6,0.2,5,0.5
			c1.4,0.3,2.6,0.7,3.7,1.3l-1.4,4.2c-0.9-0.5-2-1-3.1-1.3c-1.1-0.3-2.4-0.5-3.7-0.5c-5.8,0-8.7,3.9-8.7,11.8c0,1.6,0.2,3,0.5,4.5
			c0.3,1.4,0.8,2.7,1.5,3.8c0.7,1.1,1.7,2,2.8,2.6c1.2,0.7,2.6,1,4.3,1c1.5,0,2.8-0.2,4-0.7c1.2-0.5,2.1-1,2.9-1.5L174.1,67.3z"/>
		<path class="st0" d="M180.8,29.2c0-0.9,0.3-1.8,1-2.4c0.6-0.7,1.4-1,2.4-1c1,0,1.8,0.3,2.5,1c0.7,0.7,1,1.5,1,2.4
			c0,0.9-0.3,1.7-1,2.3c-0.7,0.6-1.5,0.9-2.5,0.9c-1,0-1.8-0.3-2.4-0.9C181.2,30.9,180.8,30.2,180.8,29.2z M181.9,38.6h4.9v30.8
			h-4.9V38.6z"/>
		<path class="st0" d="M219.8,66.9c-1.2,1-2.8,1.8-4.6,2.3c-1.9,0.6-3.8,0.9-5.9,0.9c-2.3,0-4.4-0.4-6.1-1.1
			c-1.7-0.8-3.1-1.8-4.2-3.3c-1.1-1.4-1.9-3.1-2.5-5.1c-0.5-2-0.8-4.2-0.8-6.6c0-5.3,1.2-9.3,3.5-12c2.3-2.7,5.7-4.1,10-4.1
			c1.4,0,2.8,0.2,4.2,0.5c1.4,0.3,2.6,0.9,3.8,1.8c1.1,0.9,2,2.1,2.7,3.7c0.7,1.6,1,3.7,1,6.3c0,1.4-0.1,2.9-0.4,4.5h-19.8
			c0,1.8,0.2,3.4,0.6,4.8c0.4,1.4,0.9,2.6,1.7,3.5c0.8,1,1.8,1.7,3,2.2c1.3,0.5,2.8,0.8,4.6,0.8c1.4,0,2.8-0.2,4.2-0.7
			c1.4-0.5,2.4-1.1,3.1-1.7L219.8,66.9z M209.2,42.1c-2.4,0-4.4,0.6-5.8,1.9c-1.5,1.3-2.3,3.4-2.6,6.5h15.3c0-3.1-0.6-5.3-1.8-6.6
			C213.1,42.8,211.4,42.1,209.2,42.1z"/>
		<path class="st0" d="M248.4,69.4V51.8c0-3.2-0.5-5.6-1.4-7.2c-0.9-1.6-2.6-2.4-5.1-2.4c-2.2,0-4,0.6-5.4,1.8
			c-1.4,1.2-2.4,2.6-3,4.4v21.1h-4.9V38.6h3.4l0.9,3.8h0.2c1-1.3,2.3-2.4,4-3.2c1.7-0.8,3.6-1.3,5.9-1.3c1.7,0,3.2,0.2,4.4,0.6
			c1.3,0.4,2.3,1.1,3.2,2.1c0.8,1,1.5,2.3,1.9,4c0.4,1.7,0.6,3.8,0.6,6.3v18.6H248.4z"/>
		<path class="st0" d="M283.3,67.3c-1.2,0.9-2.7,1.6-4.4,2.1c-1.7,0.5-3.4,0.7-5.3,0.7c-2.4,0-4.4-0.4-6-1.1c-1.6-0.8-3-1.8-4-3.3
			c-1-1.4-1.8-3.1-2.3-5.1c-0.5-2-0.7-4.2-0.7-6.6c0-5.2,1.1-9.2,3.4-12c2.3-2.8,5.6-4.2,9.9-4.2c2,0,3.6,0.2,5,0.5
			c1.4,0.3,2.6,0.7,3.7,1.3l-1.4,4.2c-0.9-0.5-2-1-3.1-1.3c-1.1-0.3-2.4-0.5-3.7-0.5c-5.8,0-8.7,3.9-8.7,11.8c0,1.6,0.2,3,0.5,4.5
			c0.3,1.4,0.8,2.7,1.5,3.8c0.7,1.1,1.7,2,2.8,2.6c1.2,0.7,2.6,1,4.3,1c1.5,0,2.8-0.2,4-0.7c1.2-0.5,2.1-1,2.9-1.5L283.3,67.3z"/>
		<path class="st0" d="M311.1,66.9c-1.2,1-2.8,1.8-4.6,2.3c-1.9,0.6-3.8,0.9-5.9,0.9c-2.3,0-4.4-0.4-6.1-1.1
			c-1.7-0.8-3.1-1.8-4.2-3.3c-1.1-1.4-1.9-3.1-2.5-5.1c-0.5-2-0.8-4.2-0.8-6.6c0-5.3,1.2-9.3,3.5-12c2.3-2.7,5.7-4.1,10-4.1
			c1.4,0,2.8,0.2,4.2,0.5c1.4,0.3,2.6,0.9,3.8,1.8c1.1,0.9,2,2.1,2.7,3.7c0.7,1.6,1,3.7,1,6.3c0,1.4-0.1,2.9-0.4,4.5H292
			c0,1.8,0.2,3.4,0.6,4.8c0.4,1.4,0.9,2.6,1.7,3.5c0.8,1,1.8,1.7,3,2.2c1.3,0.5,2.8,0.8,4.6,0.8c1.4,0,2.8-0.2,4.2-0.7
			c1.4-0.5,2.4-1.1,3.1-1.7L311.1,66.9z M300.5,42.1c-2.4,0-4.4,0.6-5.8,1.9c-1.5,1.3-2.3,3.4-2.6,6.5h15.3c0-3.1-0.6-5.3-1.8-6.6
			C304.4,42.8,302.7,42.1,300.5,42.1z"/>
	</g>
	<g>
		<path class="st0" d="M229.3,89.3c0.7-0.4,1.6-0.8,2.6-1c1-0.2,2-0.3,3-0.3c1,0,1.8,0.1,2.4,0.4c0.6,0.3,1.1,0.6,1.4,1.1
			c0.3,0.4,0.5,0.9,0.6,1.4c0.1,0.5,0.2,1,0.2,1.6c0,1.2,0,2.3-0.1,3.4c-0.1,1.1-0.1,2.1-0.1,3.1c0,0.7,0,1.4,0.1,2s0.2,1.2,0.3,1.8
			H238l-0.6-2h-0.1c-0.2,0.3-0.4,0.5-0.6,0.8c-0.3,0.3-0.6,0.5-0.9,0.7c-0.4,0.2-0.8,0.4-1.3,0.5c-0.5,0.1-1,0.2-1.6,0.2
			c-0.6,0-1.2-0.1-1.7-0.3c-0.5-0.2-1-0.5-1.4-0.8c-0.4-0.4-0.7-0.8-0.9-1.3c-0.2-0.5-0.3-1.1-0.3-1.7c0-0.8,0.2-1.6,0.5-2.1
			c0.3-0.6,0.8-1,1.5-1.4c0.6-0.3,1.4-0.6,2.2-0.7c0.9-0.1,1.8-0.2,2.9-0.2c0.3,0,0.5,0,0.8,0s0.5,0,0.8,0.1
			c0.1-0.6,0.1-1.1,0.1-1.6c0-1.1-0.2-1.8-0.6-2.2c-0.4-0.4-1.2-0.6-2.3-0.6c-0.3,0-0.7,0-1.1,0.1c-0.4,0-0.8,0.1-1.2,0.2
			c-0.4,0.1-0.8,0.2-1.1,0.3c-0.4,0.1-0.7,0.3-0.9,0.4L229.3,89.3z M233.4,100.8c0.5,0,1-0.1,1.4-0.2c0.4-0.1,0.8-0.3,1.1-0.5
			c0.3-0.2,0.6-0.5,0.8-0.7c0.2-0.3,0.4-0.5,0.4-0.8v-2.4c-0.3,0-0.5,0-0.8,0c-0.3,0-0.6,0-0.8,0c-0.6,0-1.2,0-1.7,0.1
			c-0.6,0.1-1.1,0.2-1.5,0.4c-0.4,0.2-0.8,0.4-1,0.7c-0.3,0.3-0.4,0.7-0.4,1.2c0,0.7,0.2,1.2,0.7,1.7
			C232,100.6,232.6,100.8,233.4,100.8z"/>
		<path class="st0" d="M254.8,103.3c0,1.9-0.5,3.2-1.5,4.1s-2.5,1.3-4.4,1.3c-1.2,0-2.1-0.1-2.8-0.2c-0.7-0.1-1.3-0.3-1.8-0.6l0.6-2
			c0.4,0.2,0.9,0.3,1.5,0.5c0.5,0.2,1.2,0.2,2.1,0.2c0.8,0,1.5-0.1,2-0.2c0.5-0.1,0.9-0.4,1.2-0.7c0.3-0.3,0.5-0.8,0.6-1.3
			c0.1-0.5,0.2-1.2,0.2-1.9v-1.4h-0.1c-0.4,0.6-0.9,1-1.5,1.3c-0.6,0.3-1.4,0.4-2.3,0.4c-1.9,0-3.4-0.6-4.3-1.8
			c-0.9-1.2-1.4-3.1-1.4-5.6c0-2.5,0.6-4.3,1.8-5.6c1.2-1.3,2.9-1.9,5.2-1.9c1.1,0,2,0.1,2.8,0.3s1.5,0.4,2.1,0.6V103.3z M249,100.9
			c1,0,1.7-0.2,2.3-0.7c0.6-0.5,1-1.3,1.2-2.3v-7.4c-0.8-0.4-1.7-0.5-2.9-0.5c-1.3,0-2.3,0.4-3.1,1.3s-1.1,2.3-1.1,4.2
			c0,0.8,0.1,1.5,0.2,2.2c0.1,0.7,0.3,1.2,0.6,1.7c0.3,0.5,0.7,0.9,1.1,1.1C247.8,100.8,248.4,100.9,249,100.9z"/>
		<path class="st0" d="M269.8,101.5c-0.6,0.5-1.3,0.8-2.2,1.1c-0.9,0.3-1.8,0.4-2.8,0.4c-1.1,0-2-0.2-2.9-0.5s-1.5-0.9-2-1.5
			c-0.5-0.7-0.9-1.5-1.2-2.4c-0.3-0.9-0.4-2-0.4-3.1c0-2.5,0.5-4.3,1.6-5.6c1.1-1.3,2.7-1.9,4.7-1.9c0.7,0,1.3,0.1,2,0.2
			s1.2,0.4,1.8,0.8c0.5,0.4,0.9,1,1.3,1.7c0.3,0.7,0.5,1.7,0.5,2.9c0,0.6-0.1,1.3-0.2,2.1h-9.3c0,0.8,0.1,1.6,0.3,2.2
			s0.4,1.2,0.8,1.7c0.4,0.5,0.8,0.8,1.4,1c0.6,0.2,1.3,0.4,2.1,0.4c0.7,0,1.3-0.1,2-0.3c0.7-0.2,1.1-0.5,1.5-0.8L269.8,101.5z
			 M264.8,89.9c-1.1,0-2,0.3-2.7,0.9c-0.7,0.6-1.1,1.6-1.2,3.1h7.1c0-1.5-0.3-2.5-0.8-3.1C266.6,90.2,265.9,89.9,264.8,89.9z"/>
		<path class="st0" d="M283.2,102.6v-8.2c0-1.5-0.2-2.6-0.6-3.4c-0.4-0.8-1.2-1.1-2.4-1.1c-1,0-1.9,0.3-2.5,0.8
			c-0.7,0.5-1.1,1.2-1.4,2.1v9.9h-2.3V88.2h1.6L276,90h0.1c0.5-0.6,1.1-1.1,1.9-1.5s1.7-0.6,2.8-0.6c0.8,0,1.5,0.1,2.1,0.3
			c0.6,0.2,1.1,0.5,1.5,1s0.7,1.1,0.9,1.9c0.2,0.8,0.3,1.8,0.3,3v8.7H283.2z"/>
		<path class="st0" d="M299.5,101.7c-0.6,0.4-1.3,0.7-2,1c-0.8,0.2-1.6,0.3-2.5,0.3c-1.1,0-2.1-0.2-2.8-0.5
			c-0.8-0.4-1.4-0.9-1.9-1.5c-0.5-0.7-0.8-1.5-1.1-2.4c-0.2-0.9-0.3-2-0.3-3.1c0-2.4,0.5-4.3,1.6-5.6c1.1-1.3,2.6-1.9,4.6-1.9
			c0.9,0,1.7,0.1,2.3,0.2c0.6,0.1,1.2,0.4,1.7,0.6l-0.7,2c-0.4-0.2-0.9-0.4-1.5-0.6c-0.5-0.1-1.1-0.2-1.7-0.2
			c-2.7,0-4.1,1.8-4.1,5.5c0,0.7,0.1,1.4,0.2,2.1c0.1,0.7,0.4,1.2,0.7,1.8c0.3,0.5,0.8,0.9,1.3,1.2c0.5,0.3,1.2,0.5,2,0.5
			c0.7,0,1.3-0.1,1.9-0.3c0.5-0.2,1-0.5,1.3-0.7L299.5,101.7z"/>
		<path class="st0" d="M306.6,97.5l0.8,2.8h0.1l0.6-2.8l2.8-9.3h2.3l-4.3,12.9c-0.3,0.9-0.6,1.9-1,2.7c-0.3,0.9-0.7,1.7-1.1,2.4
			c-0.4,0.7-0.8,1.2-1.3,1.7c-0.5,0.4-1,0.6-1.7,0.6c-0.7,0-1.3-0.1-1.7-0.3l0.4-2c0.2,0.1,0.5,0.1,0.7,0.1c0.5,0,1.1-0.3,1.6-0.9
			c0.5-0.6,0.9-1.5,1.2-2.9l-5.8-14.4h2.7L306.6,97.5z"/>
	</g>
</g>
</svg>
